<?xml version="1.0" encoding="UTF-8" standalone="no"?>
<svg
   xmlns:dc="http://purl.org/dc/elements/1.1/"
   xmlns:cc="http://creativecommons.org/ns#"
   xmlns:rdf="http://www.w3.org/1999/02/22-rdf-syntax-ns#"
   xmlns:svg="http://www.w3.org/2000/svg"
   xmlns="http://www.w3.org/2000/svg"
   xmlns:sodipodi="http://sodipodi.sourceforge.net/DTD/sodipodi-0.dtd"
   xmlns:inkscape="http://www.inkscape.org/namespaces/inkscape"
   width="271.83878" height="290.86677" viewBox="-0.2 -0.2 27.183878 29.086677"
   version="1.1"
   inkscape:version="0.48.2 r9819"
   sodipodi:docname="Double_spirale.svg">
  <title>Heyiya-if</title>
  <metadata>
    <rdf:RDF>
      <cc:Work rdf:about="">
        <dc:format>image/svg+xml</dc:format>
        <dc:type rdf:resource="http://purl.org/dc/dcmitype/StillImage" />
        <dc:title>Heyiya-if</dc:title>
        <dc:date>2013-02-14</dc:date>
        <dc:creator>
          <cc:Agent>
            <dc:title>Christophe Dang Ngoc Chan</dc:title>
          </cc:Agent>
        </dc:creator>
        <dc:subject>
          <rdf:Bag>
            <rdf:li>double spiral</rdf:li>
            <rdf:li>hinge</rdf:li>
            <rdf:li>heyiya-if</rdf:li>
            <rdf:li>Kesh</rdf:li>
            <rdf:li>Na</rdf:li>
            <rdf:li>Always Coming Home</rdf:li>
            <rdf:li>Ursula K. le Guin</rdf:li>
          </rdf:Bag>
        </dc:subject>
        <cc:license rdf:resource="http://creativecommons.org/licenses/publicdomain/" />
      </cc:Work>
      <cc:License
         rdf:about="http://creativecommons.org/licenses/publicdomain/">
        <cc:permits
           rdf:resource="http://creativecommons.org/ns#Reproduction" />
        <cc:permits
           rdf:resource="http://creativecommons.org/ns#Distribution" />
        <cc:permits
           rdf:resource="http://creativecommons.org/ns#DerivativeWorks" />
      </cc:License>
    </rdf:RDF>
  </metadata>
  <path
     style="font-size:medium;font-style:normal;font-variant:normal;font-weight:normal;font-stretch:normal;text-indent:0;text-align:start;text-decoration:none;line-height:normal;letter-spacing:normal;word-spacing:normal;text-transform:none;direction:ltr;block-progression:tb;writing-mode:lr-tb;text-anchor:start;baseline-shift:baseline;color:#000000;fill:#000000;fill-opacity:1;stroke:none;stroke-width:0.1;marker:none;visibility:visible;display:inline;overflow:visible;enable-background:accumulate;font-family:Sans;-inkscape-font-specification:Sans"
     d="m 14.343534,-0.1 c -2.185152,0 -5.0526438,0.78617536 -7.3603395,2.6414797 -2.3076957,1.8553044 -4.15625,4.6912103 -4.15625,8.2500003 0,2.371072 0.493163,4.339001 1.9263676,6.295801 1.4332046,1.9568 3.8909194,3.922949 6.4486329,3.922949 2.91094,0 5.6875,-2.088002 5.6875,-5.09375 0,-0.633932 -0.0968,-1.271629 -0.40625,-1.84375 -0.309445,-0.572121 -1.01954,-1.128243 -1.8125,-1.0625 -0.523695,0.01622 -0.98539,0.507568 -0.969025,1.031259 0.01637,0.52369 0.507839,0.98525 1.031525,0.968741 0.07013,0.129653 0.15625,0.512377 0.15625,0.90625 0,1.728432 -1.72466,3.09375 -3.6875,3.09375 -1.8002283,0 -3.3688753,-1.037972 -4.5312505,-2.625 -1.1623752,-1.587028 -1.84375,-3.692736 -1.84375,-5.59375 0,-2.8659506 1.4778282,-5.1119947 3.4375,-6.6875003 1.9596725,-1.5755056 4.6093925,-2.7501094 7.3938465,-2.7501094 4.556775,0 6.12658,0.9436788 7.825013,1.9319338 1.237079,0.7198105 2.417167,2.0089773 3.400575,2.9815915 C 26.216994,4.8101273 24.831719,3.2189844 23.747746,2.4680662 22.7332,1.7652433 21.48554,1.074122 19.215231,0.46579444 18.021093,0.14582611 16.271077,-0.1 14.343534,-0.1 z"
     sodipodi:nodetypes="ssssssscscssssssscsss"/>
  <path
     style="font-size:medium;font-style:normal;font-variant:normal;font-weight:normal;font-stretch:normal;text-indent:0;text-align:start;text-decoration:none;line-height:normal;letter-spacing:normal;word-spacing:normal;text-transform:none;direction:ltr;block-progression:tb;writing-mode:lr-tb;text-anchor:start;baseline-shift:baseline;color:#000000;fill:#000000;fill-opacity:1;stroke:none;stroke-width:2;marker:none;visibility:visible;display:inline;overflow:visible;enable-background:accumulate;font-family:Sans;-inkscape-font-specification:Sans"
     d="m 17.983195,8.1039797 c -4.822251,0 -7.148108,3.3092133 -7.21875,5.8125003 -0.02377,0.842281 0.103425,1.556361 0.46875,2.125 0.365325,0.568639 1.047543,0.950492 1.71875,0.90625 0.523692,-0.008 0.99283,-0.49194 0.984647,-1.015629 -0.0082,-0.52369 -0.49221,-0.992696 -1.015897,-0.984371 -0.05965,-0.09284 -0.172277,-0.400808 -0.15625,-0.96875 0.03716,-1.316733 1.288041,-3.875 5.21875,-3.875 4.006591,0 6.5,3.566586 6.5,6.65625 0,2.968371 -1.153908,5.508266 -3.28125,7.34375 -2.127342,1.835484 -5.320249,3.254803 -9.372355,3.254803 -3.6575383,0 -6.0700778,-1.463022 -8.0048042,-2.859618 -1.3956287,-1.007444 -3.01520218,-3.677488 -3.92478607,-5.684755 0.25578281,2.308476 1.34494867,4.863536 2.89040547,6.492938 1.9387327,2.044039 5.1045841,3.479329 9.2680268,3.479329 4.432774,0 7.902582,-0.979581 10.456013,-3.182697 2.553431,-2.203116 3.96875,-5.347471 3.96875,-8.84375 0,-4.159976 -3.320171,-8.6562503 -8.5,-8.6562503 z"
     sodipodi:nodetypes="ssscscsssssscsssss"/>
</svg>